<svg xmlns="http://www.w3.org/2000/svg" xmlns:xlink="http://www.w3.org/1999/xlink" viewBox="0,0,256,256" width="48px" height="48px" fill-rule="nonzero"><defs><linearGradient x1="2.592" y1="6.124" x2="16.864" y2="20.395" gradientUnits="userSpaceOnUse" id="color-1"><stop offset="0" stop-color="#00ffc8" stop-opacity="0.6"></stop><stop offset="1" stop-color="#ffffff" stop-opacity="0.30196"></stop></linearGradient><linearGradient x1="2.592" y1="6.124" x2="16.864" y2="20.395" gradientUnits="userSpaceOnUse" id="color-2"><stop offset="0" stop-color="#00ffc8" stop-opacity="0.6"></stop><stop offset="0.493" stop-color="#ffffff" stop-opacity="0"></stop><stop offset="0.997" stop-color="#ffffff" stop-opacity="0.30196"></stop></linearGradient></defs><g fill="none" fill-rule="nonzero" stroke="none" stroke-width="1" stroke-linecap="butt" stroke-linejoin="miter" stroke-miterlimit="10" stroke-dasharray="" stroke-dashoffset="0" font-family="none" font-weight="none" font-size="none" text-anchor="none" style="mix-blend-mode: normal"><g transform="scale(10.66667,10.66667)"><path d="M18.584,12.854l-10.493,-10.493c-0.772,-0.771 -2.091,-0.225 -2.091,0.866v15.044c0,0.996 1.103,1.596 1.939,1.054l3.1,-2.008l1.911,3.72c0.447,0.87 1.515,1.213 2.385,0.766v0c0.87,-0.447 1.213,-1.514 0.766,-2.384l-1.878,-3.651l3.735,-0.797c0.974,-0.208 1.33,-1.412 0.626,-2.117z" fill="url(#color-1)"></path><path d="M7.234,2.5c0.132,0 0.326,0.037 0.504,0.215l10.493,10.493c0.199,0.199 0.27,0.479 0.19,0.749c-0.08,0.27 -0.292,0.466 -0.567,0.525l-3.735,0.797l-0.639,0.136l0.299,0.581l1.878,3.651c0.32,0.623 0.074,1.391 -0.55,1.711c-0.182,0.093 -0.377,0.141 -0.579,0.141c-0.479,0 -0.913,-0.265 -1.132,-0.691l-1.911,-3.72l-0.253,-0.492l-0.464,0.301l-3.1,2.008c-0.127,0.083 -0.264,0.125 -0.408,0.125c-0.365,0 -0.76,-0.29 -0.76,-0.758v-15.045c0,-0.455 0.373,-0.727 0.734,-0.727M7.234,2c-0.63,0 -1.234,0.489 -1.234,1.227v15.044c0,0.738 0.606,1.258 1.26,1.258c0.229,0 0.463,-0.064 0.68,-0.204l3.1,-2.008l1.911,3.72c0.313,0.612 0.933,0.963 1.576,0.963c0.272,0 0.549,-0.063 0.808,-0.196v0c0.87,-0.447 1.213,-1.514 0.766,-2.384l-1.878,-3.651l3.735,-0.797c0.974,-0.208 1.33,-1.413 0.626,-2.117l-10.493,-10.494c-0.249,-0.249 -0.556,-0.361 -0.857,-0.361z" fill="url(#color-2)"></path></g></g></svg>